# xmcd CD database file
#
# Track frame offsets:
#	150
#	12050
#	28732
#	39955
#	57187
#	68184
#	79972
#	96069
#	108329
#	117719
#	130856
#	143401
#
# Disc length: 2116 seconds
#
# Revision: 0
# Processed by: cddbd v1.5.2PL0 Copyright (c) Steve Scherf et al.
# Submitted via: CDex 1.70beta2
#
DISCID=9908420c
DTITLE=The Byrds - Sweetheart Of The Rodeo (Hilltop Version)
DYEAR=1968
DGENRE=Country
TTITLE0=You Ain't Goin' Nowhere
TTITLE1=I Am A Pilgrim
TTITLE2=The Christian Life
TTITLE3=You Don't Miss Your Water 
TTITLE4=You're Still On My Mind
TTITLE5=Pretty Boy Floyd
TTITLE6=Hickory Wind
TTITLE7=One Hundred Years From Now
TTITLE8=Blue Canadian Rockies
TTITLE9=Pretty Polly
TTITLE10=Life In Prison
TTITLE11=Nothing Was Delivered
EXTD=YEAR: 1968
EXTT0=
EXTT1=
EXTT2=
EXTT3=
EXTT4=
EXTT5=
EXTT6=
EXTT7=
EXTT8=
EXTT9=
EXTT10=
EXTT11=
PLAYORDER=
